# Wavefront .OBJ file for tesselated shape: finger-2 path: C:\Users\sbel\Downloads\lunarVehicleArm\lunarVehicleArm\finger.SLDPRT

g body_1
v -0.101600 0.000000 0.012700
v -0.101600 0.000000 -0.012700
v -0.101600 0.151467 -0.012700
v -0.101600 0.151467 0.012700
v -0.101600 0.151467 0.012700
v -0.101600 0.151467 -0.012700
v -0.077477 0.203200 -0.012700
v -0.077477 0.203200 0.012700
v -0.077477 0.203200 0.012700
v -0.077477 0.203200 -0.012700
v -0.090177 0.203200 -0.012700
v -0.090177 0.203200 0.012700
v -0.090177 0.203200 0.012700
v -0.090177 0.203200 -0.012700
v -0.127000 0.151467 -0.012700
v -0.127000 0.151467 0.012700
v -0.127000 0.151467 0.012700
v -0.127000 0.151467 -0.012700
v -0.127000 -0.025400 -0.012700
v -0.127000 -0.025400 0.012700
v -0.101600 0.151467 0.012700
v -0.077477 0.203200 0.012700
v -0.090177 0.203200 0.012700
v -0.127000 0.151467 0.012700
v -0.127000 -0.025400 0.012700
v -0.101600 0.000000 0.012700
v 0.000000 -0.025400 0.012700
v 0.000000 0.000000 0.012700
v -0.127000 0.151467 -0.012700
v -0.101600 0.151467 -0.012700
v -0.101600 0.000000 -0.012700
v -0.090177 0.203200 -0.012700
v 0.000000 -0.025400 -0.012700
v -0.127000 -0.025400 -0.012700
v -0.077477 0.203200 -0.012700
v 0.000000 0.000000 -0.012700
v -0.127000 -0.025400 0.012700
v -0.127000 -0.025400 -0.012700
v 0.000000 -0.025400 -0.012700
v 0.000000 -0.025400 0.012700
v 0.000000 -0.025400 0.012700
v 0.000000 -0.025400 -0.012700
v 0.000000 0.000000 -0.012700
v 0.000000 0.000000 0.012700
v 0.000000 0.000000 0.012700
v 0.000000 0.000000 -0.012700
v -0.101600 0.000000 -0.012700
v -0.101600 0.000000 0.012700
vn 1.000 0.000 0.000
vn 1.000 0.000 0.000
vn 1.000 0.000 0.000
vn 1.000 0.000 0.000
vn 0.906 -0.423 0.000
vn 0.906 -0.423 0.000
vn 0.906 -0.423 0.000
vn 0.906 -0.423 0.000
vn 0.000 1.000 0.000
vn 0.000 1.000 0.000
vn 0.000 1.000 0.000
vn 0.000 1.000 0.000
vn -0.815 0.580 0.000
vn -0.815 0.580 0.000
vn -0.815 0.580 0.000
vn -0.815 0.580 0.000
vn -1.000 0.000 0.000
vn -1.000 0.000 0.000
vn -1.000 0.000 0.000
vn -1.000 0.000 0.000
vn 0.000 0.000 1.000
vn 0.000 0.000 1.000
vn 0.000 0.000 1.000
vn 0.000 0.000 1.000
vn 0.000 0.000 1.000
vn 0.000 0.000 1.000
vn 0.000 0.000 1.000
vn 0.000 0.000 1.000
vn 0.000 0.000 -1.000
vn 0.000 0.000 -1.000
vn 0.000 0.000 -1.000
vn 0.000 0.000 -1.000
vn 0.000 0.000 -1.000
vn 0.000 0.000 -1.000
vn 0.000 0.000 -1.000
vn 0.000 0.000 -1.000
vn 0.000 -1.000 0.000
vn 0.000 -1.000 0.000
vn 0.000 -1.000 0.000
vn 0.000 -1.000 0.000
vn 1.000 0.000 0.000
vn 1.000 0.000 0.000
vn 1.000 0.000 0.000
vn 1.000 0.000 0.000
vn 0.000 1.000 0.000
vn 0.000 1.000 0.000
vn 0.000 1.000 0.000
vn 0.000 1.000 0.000
vt 0.0000 0.0000 0
vt 0.0000 -0.0254 0
vt -0.1515 -0.0254 0
vt -0.1515 0.0000 0
vt 0.0000 0.0000 0
vt 0.0000 -0.0254 0
vt -0.0571 -0.0254 0
vt -0.0571 0.0000 0
vt 0.0000 0.0000 0
vt 0.0254 0.0000 0
vt 0.0254 -0.0127 0
vt 0.0000 -0.0127 0
vt 0.0000 0.0000 0
vt 0.0000 -0.0254 0
vt -0.0635 -0.0254 0
vt -0.0635 0.0000 0
vt 0.0000 0.0000 0
vt 0.0254 0.0000 0
vt 0.0254 -0.1769 0
vt 0.0000 -0.1769 0
vt -0.1016 0.1515 0
vt -0.0775 0.2032 0
vt -0.0902 0.2032 0
vt -0.1270 0.1515 0
vt -0.1270 -0.0254 0
vt -0.1016 0.0000 0
vt 0.0000 -0.0254 0
vt 0.0000 0.0000 0
vt -0.1270 0.1515 0
vt -0.1016 0.1515 0
vt -0.1016 0.0000 0
vt -0.0902 0.2032 0
vt 0.0000 -0.0254 0
vt -0.1270 -0.0254 0
vt -0.0775 0.2032 0
vt 0.0000 0.0000 0
vt 0.0000 0.0000 0
vt 0.0000 -0.0254 0
vt -0.1270 -0.0254 0
vt -0.1270 0.0000 0
vt 0.0000 0.0000 0
vt 0.0000 -0.0254 0
vt -0.0254 -0.0254 0
vt -0.0254 0.0000 0
vt 0.0000 0.0000 0
vt 0.0000 -0.0254 0
vt -0.1016 -0.0254 0
vt -0.1016 0.0000 0
f 1/1/1 3/3/3 4/4/4
f 3/3/3 1/1/1 2/2/2
f 7/7/7 5/5/5 6/6/6
f 5/5/5 7/7/7 8/8/8
f 11/11/11 9/9/9 10/10/10
f 9/9/9 11/11/11 12/12/12
f 13/13/13 15/15/15 16/16/16
f 15/15/15 13/13/13 14/14/14
f 19/19/19 17/17/17 18/18/18
f 17/17/17 19/19/19 20/20/20
f 37/37/37 39/39/39 40/40/40
f 39/39/39 37/37/37 38/38/38
f 43/43/43 41/41/41 42/42/42
f 41/41/41 43/43/43 44/44/44
f 45/45/45 47/47/47 48/48/48
f 47/47/47 45/45/45 46/46/46
f 21/21/21 23/23/23 24/24/24
f 26/26/26 27/27/27 28/28/28
f 24/24/24 26/26/26 21/21/21
f 26/26/26 24/24/24 25/25/25
f 23/23/23 21/21/21 22/22/22
f 27/27/27 26/26/26 25/25/25
f 32/32/32 30/30/30 29/29/29
f 31/31/31 33/33/33 34/34/34
f 30/30/30 32/32/32 35/35/35
f 29/29/29 31/31/31 34/34/34
f 33/33/33 31/31/31 36/36/36
f 31/31/31 29/29/29 30/30/30
